<svg width="172" height="24" viewBox="0 0 172 24" fill="none" xmlns="http://www.w3.org/2000/svg">
<path d="M7.36646 20.4275H4.26841V6.59118H0V4.12529H11.6119V6.59118H7.36646V20.4275Z" fill="black" fill-opacity="0.99"/>
<path d="M25.4398 20.4275H22.3417V13.1897H16.0079V20.4275H12.9329V4.12529H16.0079V10.701H22.3417V4.12529H25.4398V20.4275Z" fill="black" fill-opacity="0.99"/>
<path d="M37.13 20.4275H28.2948V4.12529H37.13V6.56834H31.3699V10.7238H36.7628V13.1669H31.3699V17.9616H37.13V20.4275Z" fill="black" fill-opacity="0.99"/>
<path d="M55.5844 12.1166C55.5844 13.9432 55.2555 15.4729 54.5976 16.7059C53.9551 17.9388 53.0218 18.8673 51.7979 19.4914C50.574 20.1155 49.1053 20.4275 47.3918 20.4275H42.8939V4.12529H47.8278C49.4342 4.12529 50.8188 4.42973 51.9815 5.03859C53.1442 5.64745 54.0316 6.54551 54.6435 7.73279C55.2708 8.90485 55.5844 10.3661 55.5844 12.1166ZM52.3716 12.2079C52.3716 10.9141 52.1957 9.84858 51.8438 9.0114C51.5072 8.17421 50.9947 7.55774 50.3063 7.16198C49.6331 6.751 48.7993 6.54551 47.8049 6.54551H45.969V17.9845H47.4606C49.1282 17.9845 50.3598 17.505 51.1553 16.546C51.9662 15.5719 52.3716 14.1258 52.3716 12.2079Z" fill="black" fill-opacity="0.99"/>
<path d="M67.2635 20.4275L66.0014 16.1122H60.4019L59.1398 20.4275H55.8352L61.3428 4.0568H65.0375L70.5681 20.4275H67.2635ZM63.9589 9.39954C63.8977 9.156 63.8136 8.86679 63.7065 8.53192C63.6147 8.18182 63.5229 7.82412 63.4311 7.4588C63.3546 7.09349 63.2781 6.751 63.2016 6.43135C63.0945 6.99455 62.9722 7.53491 62.8345 8.05244C62.6968 8.56997 62.5744 9.01901 62.4673 9.39954L61.1822 13.6007H65.267L63.9589 9.39954Z" fill="black" fill-opacity="0.99"/>
<path d="M78.132 20.4275H71.3163V18.7608L73.198 18.0301V6.54551L71.3163 5.79205V4.12529H78.132V5.79205L76.2731 6.54551V18.0301L78.132 18.7608V20.4275Z" fill="black" fill-opacity="0.99"/>
<path d="M79.848 20.4275V4.12529H82.9231V17.9616H89.2339V20.4275H79.848Z" fill="black" fill-opacity="0.99"/>
<path d="M94.9398 11.3175L98.2444 4.12529H101.572L96.4774 14.0802V20.4275H93.4023V14.1943L88.2848 4.12529H91.6352L94.9398 11.3175Z" fill="black" fill-opacity="0.99"/>
<path d="M112.33 11.4773H118.32V19.7654C117.524 20.0546 116.668 20.2753 115.75 20.4275C114.847 20.5797 113.837 20.6558 112.72 20.6558C111.191 20.6558 109.875 20.3286 108.773 19.6741C107.687 19.0195 106.853 18.0682 106.272 16.82C105.691 15.5719 105.4 14.0497 105.4 12.2536C105.4 10.5488 105.714 9.07228 106.341 7.82412C106.968 6.57596 107.878 5.60939 109.072 4.92442C110.265 4.23946 111.726 3.89697 113.455 3.89697C114.327 3.89697 115.161 3.9883 115.956 4.17096C116.767 4.3384 117.501 4.57433 118.159 4.87876L117.127 7.27615C116.606 7.01738 116.025 6.80428 115.382 6.63684C114.755 6.45418 114.097 6.36285 113.409 6.36285C112.369 6.36285 111.489 6.6064 110.77 7.09349C110.066 7.58057 109.523 8.27315 109.141 9.17122C108.773 10.0541 108.59 11.0967 108.59 12.2992C108.59 13.4561 108.743 14.4835 109.049 15.3816C109.37 16.2644 109.86 16.957 110.517 17.4593C111.191 17.9464 112.04 18.19 113.065 18.19C113.386 18.19 113.684 18.1747 113.96 18.1443C114.235 18.1139 114.487 18.0758 114.717 18.0301C114.962 17.9845 115.176 17.9388 115.36 17.8931V13.966H112.33V11.4773Z" fill="black" fill-opacity="0.99"/>
<path d="M120.846 20.4275V4.12529H123.921V17.9616H130.232V20.4275H120.846Z" fill="black" fill-opacity="0.99"/>
<path fill-rule="evenodd" clip-rule="evenodd" d="M141.657 18.2816C145.144 16.7731 146.742 12.7379 145.226 9.26871C143.71 5.7995 139.654 4.21 136.167 5.71845C132.68 7.22691 131.083 11.2621 132.599 14.7313C134.115 18.2005 138.171 19.79 141.657 18.2816ZM142.493 20.1934C147.041 18.2258 149.125 12.9625 147.147 8.43745C145.17 3.91239 139.88 1.83912 135.332 3.80667C130.783 5.77422 128.7 11.0375 130.677 15.5626C132.655 20.0876 137.945 22.1609 142.493 20.1934Z" fill="black" fill-opacity="0.99"/>
<path fill-rule="evenodd" clip-rule="evenodd" d="M146.401 9.84262L131.99 16.0771L131.592 15.1667L146.004 8.93225L146.401 9.84262Z" fill="black" fill-opacity="0.99"/>
<path fill-rule="evenodd" clip-rule="evenodd" d="M136.263 4.69317L142.529 19.0315L142.072 19.2294L135.805 4.89109L136.263 4.69317Z" fill="black" fill-opacity="0.99"/>
<path fill-rule="evenodd" clip-rule="evenodd" d="M143.895 6.59698L131.542 11.9408L131.344 11.4856L143.696 6.14179L143.895 6.59698Z" fill="black" fill-opacity="0.99"/>
<path fill-rule="evenodd" clip-rule="evenodd" d="M146.68 12.9696L134.327 18.3134L134.128 17.8582L146.481 12.5144L146.68 12.9696Z" fill="black" fill-opacity="0.99"/>
<path fill-rule="evenodd" clip-rule="evenodd" d="M143.439 15.504C143.631 14.0494 143.366 12.2338 142.572 10.4167C141.778 8.59953 140.624 7.16903 139.424 6.31639C138.215 5.45706 137.04 5.23236 136.127 5.62742C135.214 6.02247 134.578 7.0301 134.385 8.49607C134.194 9.95063 134.458 11.7663 135.252 13.5834C136.046 15.4005 137.201 16.831 138.401 17.6836C139.61 18.543 140.784 18.7677 141.697 18.3726C142.61 17.9776 143.246 16.9699 143.439 15.504ZM141.896 18.8278C144.17 17.844 144.678 13.9896 143.03 10.2187C141.382 6.44785 138.202 4.18845 135.928 5.17223C133.654 6.15601 133.147 10.0104 134.795 13.7813C136.443 17.5522 139.622 19.8116 141.896 18.8278Z" fill="black" fill-opacity="0.99"/>
<path fill-rule="evenodd" clip-rule="evenodd" d="M138.912 18.4528C142.494 18.4528 145.397 15.5638 145.397 12.0002C145.397 8.43651 142.494 5.54758 138.912 5.54758C135.33 5.54758 132.427 8.43651 132.427 12.0002C132.427 15.5638 135.33 18.4528 138.912 18.4528ZM138.912 20.9345C143.871 20.9345 147.892 16.9345 147.892 12.0002C147.892 7.06587 143.871 3.06582 138.912 3.06582C133.953 3.06582 129.932 7.06587 129.932 12.0002C129.932 16.9345 133.953 20.9345 138.912 20.9345Z" fill="black" fill-opacity="0.99"/>
<path d="M132.706 2.7776C132.266 1.77203 132.729 0.602408 133.74 0.165174C134.751 -0.27206 135.926 0.188667 136.366 1.19423L136.764 2.10461L133.104 3.68797L132.706 2.7776Z" fill="black" fill-opacity="0.99"/>
<path d="M141.061 21.8954L144.721 20.312L145.119 21.2224C145.558 22.228 145.095 23.3976 144.084 23.8348C143.074 24.2721 141.898 23.8113 141.459 22.8058L141.061 21.8954Z" fill="black" fill-opacity="0.99"/>
<path d="M154.639 4.12531C156.016 4.12531 157.148 4.2623 158.035 4.53629C158.938 4.79505 159.611 5.22125 160.055 5.81489C160.499 6.40853 160.72 7.20766 160.72 8.21228C160.72 8.83636 160.613 9.39955 160.399 9.90186C160.185 10.4042 159.887 10.8152 159.504 11.1348C159.122 11.4545 158.67 11.6676 158.15 11.7741V11.8883C158.686 11.9948 159.175 12.1927 159.619 12.4819C160.078 12.7559 160.445 13.1593 160.72 13.692C160.996 14.2095 161.133 14.8945 161.133 15.7469C161.133 16.7363 160.904 17.5811 160.445 18.2813C159.986 18.9815 159.336 19.5142 158.494 19.8796C157.668 20.2449 156.674 20.4275 155.511 20.4275H149.82V4.12531H154.639ZM154.914 10.7695C155.909 10.7695 156.597 10.5868 156.98 10.2215C157.362 9.8562 157.553 9.31584 157.553 8.60043C157.553 7.86979 157.324 7.34465 156.865 7.025C156.421 6.70535 155.71 6.54552 154.731 6.54552H152.895V10.7695H154.914ZM152.895 13.1212V17.9845H155.144C156.184 17.9845 156.903 17.7562 157.301 17.2995C157.714 16.8429 157.921 16.234 157.921 15.4729C157.921 14.9858 157.829 14.5673 157.645 14.2172C157.477 13.8671 157.186 13.6007 156.773 13.418C156.36 13.2201 155.786 13.1212 155.052 13.1212H152.895Z" fill="black" fill-opacity="0.99"/>
<path d="M172 20.4275H163.165V4.12531H172V6.56835H166.24V10.7238H171.633V13.1669H166.24V17.9616H172V20.4275Z" fill="black" fill-opacity="0.99"/>
</svg>
